<svg id="Layer_1" data-name="Layer 1" xmlns="http://www.w3.org/2000/svg" viewBox="0 0 550 125"><title>Ask a question illustrations</title><g style="opacity:0.5"><polygon points="232.73 73 217.5 92.89 217.5 73 201.5 73 201.5 26 265.5 26 265.5 40.46 265.5 73 233.2 73 232.73 73" style="fill:#cceaff"/><polyline points="205 47 205 20.5 219.5 20.5" style="fill:none;stroke:#1060e1;stroke-miterlimit:10"/><polyline points="255.5 66.5 237.49 66.5 236.99 66.5 221 86.06 221 66.5 205 66.5 205 58" style="fill:none;stroke:#1060e1;stroke-miterlimit:10"/><polyline points="231.5 20.5 270 20.5 270 34.65 270 66.5 263.5 66.5" style="fill:none;stroke:#1060e1;stroke-miterlimit:10"/><polygon points="222.5 40.79 222.5 48.09 230.66 55.38 246.5 41.17 246.5 33.3 230.66 47.61 222.5 40.79" style="fill:#fff"/><polygon points="374.36 76 365.07 87.42 364.81 76 359.5 76 359.5 49 404.5 49 404.5 57.31 404.5 76 375.11 76 374.36 76" style="fill:#ffb935"/><polyline points="379.5 46.5 402 46.5 402 55" style="fill:none;stroke:#f48024;stroke-miterlimit:10"/><polyline points="402 62 402 73.5 376.03 73.5 372.02 73.5 363 84.92 363 73.5 357 73.5 357 46.5 368.5 46.5" style="fill:none;stroke:#f48024;stroke-miterlimit:10"/><rect x="377.5" y="59" width="5" height="5" style="fill:#fff"/><rect x="367.5" y="59" width="5" height="5" style="fill:#fff"/><rect x="387.5" y="59" width="5" height="5" style="fill:#fff"/><polygon points="180.25 67 185.41 73.77 185.55 67 188.5 67 188.5 51 163.5 51 163.5 55.92 163.5 67 179.83 67 180.25 67" style="fill:#ffb935"/><polyline points="170.5 65.5 178.66 65.5 181.23 65.5 187 72.22 187 65.5 191 65.5 191 59" style="fill:none;stroke:#f48024;stroke-miterlimit:10"/><polyline points="170.5 49.5 165 49.5 165 54.39 165 65" style="fill:none;stroke:#f48024;stroke-miterlimit:10"/><polyline points="191 53 191 49.5 175.5 49.5" style="fill:none;stroke:#f48024;stroke-miterlimit:10"/><rect x="175.5" y="57" width="3" height="3" transform="translate(354 117) rotate(-180)" style="fill:#fff"/><rect x="181.5" y="57" width="3" height="3" transform="translate(366 117) rotate(-180)" style="fill:#fff"/><rect x="169.5" y="57" width="3" height="3" transform="translate(342 117) rotate(-180)" style="fill:#fff"/><polygon points="486.95 77 502.5 96.89 502.5 77 518.5 77 518.5 30 453.5 30 453.5 44.46 453.5 77 486.47 77 486.95 77" style="fill:#ffb935"/><polyline points="515 51 515 24.5 500.5 24.5" style="fill:none;stroke:#f48024;stroke-miterlimit:10"/><polyline points="464.5 70.5 482.51 70.5 483.01 70.5 499 90.06 499 70.5 515 70.5 515 62" style="fill:none;stroke:#f48024;stroke-miterlimit:10"/><polyline points="488.5 24.5 450 24.5 450 38.65 450 70.5 456.5 70.5" style="fill:none;stroke:#f48024;stroke-miterlimit:10"/><polygon points="470.5 44.71 470.5 52 478.66 59.3 494.5 45.09 494.5 37.22 478.66 51.52 470.5 44.71" style="fill:#fff"/><polyline points="533.5 34.5 531.36 34.5 527 40.34 527 34.5 524 34.5 524 22.5 528.5 22.5" style="fill:none;stroke:#1060e1;stroke-miterlimit:10"/><polyline points="545 30 545 35.5 537.5 35.5" style="fill:none;stroke:#1060e1;stroke-miterlimit:10"/><polyline points="533.5 22.5 545 22.5 545 26" style="fill:none;stroke:#1060e1;stroke-miterlimit:10"/><rect x="534" y="28.5" width="2" height="2" style="fill:none;stroke:#1060e1;stroke-miterlimit:10"/><rect x="529" y="28.5" width="2" height="2" style="fill:none;stroke:#1060e1;stroke-miterlimit:10"/><rect x="539" y="28.5" width="2" height="2" style="fill:none;stroke:#1060e1;stroke-miterlimit:10"/><polyline points="280 30 280 16.5 287.5 16.5" style="fill:none;stroke:#1060e1;stroke-miterlimit:10"/><polyline points="305.5 39.5 296.24 39.5 296 39.5 288 49.5 288 39.5 280 39.5 280 35" style="fill:none;stroke:#1060e1;stroke-miterlimit:10"/><polyline points="293.5 15.5 313 15.5 313 22.89 313 39.5 309.5 39.5" style="fill:none;stroke:#1060e1;stroke-miterlimit:10"/><polygon points="289 26.52 289 30.17 293.08 33.82 301 26.71 301 22.78 293.08 29.93 289 26.52" style="fill:none;stroke:#1060e1;stroke-miterlimit:10"/><polyline points="124.5 27.5 125.91 27.5 129 31.73 129 27.5 131 27.5 131 17.5 128.5 17.5" style="fill:none;stroke:#f48024;stroke-miterlimit:10"/><polyline points="115 23 115 27.5 121.5 27.5" style="fill:none;stroke:#f48024;stroke-miterlimit:10"/><polyline points="124.5 17.5 115 17.5 115 21" style="fill:none;stroke:#f48024;stroke-miterlimit:10"/><rect x="122" y="21.5" width="2" height="2" transform="translate(246 45) rotate(-180)" style="fill:none;stroke:#f48024;stroke-miterlimit:10"/><rect x="126" y="21.5" width="2" height="2" transform="translate(254 45) rotate(-180)" style="fill:none;stroke:#f48024;stroke-miterlimit:10"/><rect x="118" y="21.5" width="2" height="2" transform="translate(238 45) rotate(-180)" style="fill:none;stroke:#f48024;stroke-miterlimit:10"/><path d="M188.5,78.19S193.19,97.1,216,94.47" style="fill:none;stroke:#bbc0c4;stroke-miterlimit:10;stroke-dasharray:5"/><path d="M131,32.67s21.64-2,33,15" style="fill:none;stroke:#bbc0c4;stroke-miterlimit:10;stroke-dasharray:5"/><path d="M271.12,69.19c23.92,31.24,55.21,35.18,90.64,19.3" style="fill:none;stroke:#bbc0c4;stroke-miterlimit:10;stroke-dasharray:5"/><path d="M402,43.5c.68-6.28,19.53-30.13,45.26-21" style="fill:none;stroke:#bbc0c4;stroke-miterlimit:10;stroke-dasharray:5"/><path d="M503.45,98.26c5.25.1,37.8-10.84,23.09-54.76" style="fill:none;stroke:#bbc0c4;stroke-miterlimit:10;stroke-dasharray:5"/><path d="M272.34,66.5s10.51,0,15.16-13.88" style="fill:none;stroke:#bbc0c4;stroke-miterlimit:10;stroke-dasharray:5"/><path d="M97.22,79.67c14.33-2.39,42.51-3.18,55.87,12.65s58.91,20.93,64.49,3" style="fill:none;stroke:#bbc0c4;stroke-miterlimit:10;stroke-dasharray:5"/></g><line x1="59.15" y1="88.54" x2="59.15" y2="83.56" style="fill:none;stroke:#1060e1;stroke-miterlimit:10"/><line x1="71.6" y1="84.81" x2="71.6" y2="88.54" style="fill:none;stroke:#1060e1;stroke-miterlimit:10"/><polyline points="55.27 82.77 49.43 81.97 52.39 60.37 79.76 64.12 76.8 85.72 54.95 82.73" style="fill:none;stroke:#1060e1;stroke-miterlimit:10"/><path d="M50.22,76.21l-2.31-.32a2,2,0,0,1-1.73-2.28L46.81,69a2,2,0,0,1,2.3-1.74l2.3.31Z" style="fill:none;stroke:#1060e1;stroke-miterlimit:10"/><path d="M79.88,80.27,77.59,80l1.18-8.64,2.32.32a2,2,0,0,1,1.73,2.27l-.64,4.62A2,2,0,0,1,79.88,80.27Z" style="fill:none;stroke:#1060e1;stroke-miterlimit:10"/><line x1="66.6" y1="79.11" x2="66.4" y2="80.55" style="fill:none;stroke:#1060e1;stroke-miterlimit:10"/><line x1="69.48" y1="79.5" x2="69.28" y2="80.94" style="fill:none;stroke:#1060e1;stroke-miterlimit:10"/><line x1="63.72" y1="78.71" x2="63.52" y2="80.15" style="fill:none;stroke:#1060e1;stroke-miterlimit:10"/><line x1="60.84" y1="78.32" x2="60.64" y2="79.76" style="fill:none;stroke:#1060e1;stroke-miterlimit:10"/><line x1="57.96" y1="77.93" x2="57.76" y2="79.37" style="fill:none;stroke:#1060e1;stroke-miterlimit:10"/><ellipse cx="66.45" cy="70.5" rx="2.87" ry="2.94" transform="translate(-12.42 126.77) rotate(-82.2)" style="fill:none;stroke:#1060e1;stroke-miterlimit:10"/><ellipse cx="56.76" cy="69.18" rx="2.87" ry="2.94" transform="translate(-19.48 116.02) rotate(-82.2)" style="fill:none;stroke:#1060e1;stroke-miterlimit:10"/><line x1="55.42" y1="105.96" x2="55.42" y2="113.42" style="fill:none;stroke:#1060e1;stroke-miterlimit:10"/><line x1="72.84" y1="105.96" x2="72.84" y2="113.42" style="fill:none;stroke:#1060e1;stroke-miterlimit:10"/><line x1="76.57" y1="96.01" x2="76.57" y2="97.25" style="fill:none;stroke:#1060e1;stroke-miterlimit:10"/><line x1="66.62" y1="96.01" x2="66.62" y2="97.25" style="fill:none;stroke:#1060e1;stroke-miterlimit:10"/><rect x="54.18" y="95.38" width="7.47" height="4.98" style="fill:none;stroke:#1060e1;stroke-miterlimit:10"/><polyline points="81.55 100.98 81.55 105.34 46.71 105.34 46.71 87.92 61.02 87.92" style="fill:none;stroke:#1060e1;stroke-miterlimit:10"/><polyline points="61.02 87.92 81.55 87.92 81.55 97.25" style="fill:none;stroke:#1060e1;stroke-miterlimit:10"/><path d="M88.32,96.44l1.28-4.17a4.4,4.4,0,0,0-4.45-4.35H79.68" style="fill:none;stroke:#1060e1;stroke-miterlimit:10"/><line x1="79.29" y1="104.84" x2="81.97" y2="101.4" style="fill:none;stroke:#1060e1;stroke-miterlimit:10"/><line x1="82.72" y1="107.53" x2="85.41" y2="104.09" style="fill:none;stroke:#1060e1;stroke-miterlimit:10"/><path d="M88.32,96.83h0c2.22,1.73,2.81,4.67,1.33,6.56l-2,2.57-8-6.27,2-2.57C83.12,95.23,86.11,95.1,88.32,96.83Z" style="fill:none;stroke:#1060e1;stroke-miterlimit:10"/><path d="M55.14,91.3a6.71,6.71,0,0,1-1.75.35H47.33" style="fill:none;stroke:#1060e1;stroke-miterlimit:10"/><line x1="57.43" y1="79.39" x2="55.45" y2="82.39" style="fill:none;stroke:#1060e1;stroke-miterlimit:10"/><path d="M54.31,90.61h0c-2.34-1.55-3.17-4.43-1.85-6.43l1.8-2.73,8.49,5.61L61,89.78C59.63,91.79,56.66,92.16,54.31,90.61Z" style="fill:#fff;stroke:#1060e1;stroke-miterlimit:10"/><polygon points="40.82 46.24 48.78 56.24 49.01 46.24 53.56 46.24 53.56 22.6 14.98 22.6 14.98 29.87 14.98 46.24 40.17 46.24 40.82 46.24" style="fill:#ffb935"/><polyline points="28.67 43.13 39.75 43.13 43.36 43.13 51.69 53.66 51.69 43.13 57.91 43.13 57.91 33.8" style="fill:none;stroke:#f48024;stroke-miterlimit:10"/><polyline points="26.18 19.49 18.1 19.49 18.1 26.9 18.1 43.75" style="fill:none;stroke:#f48024;stroke-miterlimit:10"/><polyline points="56.67 25.09 56.67 19.49 33.65 19.49" style="fill:none;stroke:#f48024;stroke-miterlimit:10"/><path d="M34.17,33.8a5.9,5.9,0,0,1,.34-2.23,4.5,4.5,0,0,1,1.24-1.64A6.41,6.41,0,0,0,37,28.62a2.06,2.06,0,0,0,.3-1.07c0-1.12-.52-1.69-1.56-1.69a1.56,1.56,0,0,0-1.18.46,1.74,1.74,0,0,0-.46,1.25h-2.9a3.84,3.84,0,0,1,1.23-3,4.82,4.82,0,0,1,3.31-1.08,4.84,4.84,0,0,1,3.29,1,3.64,3.64,0,0,1,1.17,2.89A3.57,3.57,0,0,1,39.77,29a6.57,6.57,0,0,1-1.33,1.68l-.81.77a2.78,2.78,0,0,0-.87,1.71l0,.61ZM34,36.85a1.34,1.34,0,0,1,.43-1,1.64,1.64,0,0,1,2.17,0,1.34,1.34,0,0,1,.43,1,1.32,1.32,0,0,1-.42,1,1.7,1.7,0,0,1-2.19,0A1.32,1.32,0,0,1,34,36.85Z" style="fill:#fff"/><path d="M79.06,124H66.62v-4.21a6.45,6.45,0,0,1,5-6.42,6.29,6.29,0,0,1,7.47,6.33Z" style="fill:none;stroke:#1060e1;stroke-miterlimit:10"/><line x1="75.33" y1="122.13" x2="75.33" y2="123.38" style="fill:none;stroke:#1060e1;stroke-miterlimit:10"/><line x1="70.35" y1="122.13" x2="70.35" y2="123.38" style="fill:none;stroke:#1060e1;stroke-miterlimit:10"/><path d="M61.64,124H49.2v-4.21a6.47,6.47,0,0,1,5-6.42,6.29,6.29,0,0,1,7.47,6.33Z" style="fill:none;stroke:#1060e1;stroke-miterlimit:10"/><line x1="57.91" y1="122.13" x2="57.91" y2="123.38" style="fill:none;stroke:#1060e1;stroke-miterlimit:10"/><line x1="52.93" y1="122.13" x2="52.93" y2="123.38" style="fill:none;stroke:#1060e1;stroke-miterlimit:10"/></svg>
